<?xml version="1.0" encoding="UTF-8" standalone="no"?>
<svg width="17px" height="17px" viewBox="0 0 17 17" version="1.1" xmlns="http://www.w3.org/2000/svg" xmlns:xlink="http://www.w3.org/1999/xlink">
    <!-- Generator: sketchtool 45 (43471) - http://www.bohemiancoding.com/sketch -->
    <title>Facebook-color</title>
    <desc>Created with sketchtool.</desc>
    <defs></defs>
    <g id="Page-1" stroke="none" stroke-width="1" fill="none" fill-rule="evenodd">
        <g id="-COMPRASGO-landing" transform="translate(-213.000000, -3623.000000)" fill="#4460A0">
            <path d="M222.080251,3640 L213.938269,3640 C213.419926,3640 213,3639.57981 213,3639.06167 L213,3623.93826 C213,3623.41999 213.419992,3623 213.938269,3623 L229.061796,3623 C229.579942,3623 230,3623.41999 230,3623.93826 L230,3639.06167 C230,3639.57988 229.579876,3640 229.061796,3640 L224.729754,3640 L224.729754,3633.41666 L226.939476,3633.41666 L227.270351,3630.85102 L224.729754,3630.85102 L224.729754,3629.21302 C224.729754,3628.47021 224.936023,3627.964 226.001207,3627.964 L227.359798,3627.96341 L227.359798,3625.66868 C227.124835,3625.63741 226.318361,3625.56756 225.380091,3625.56756 C223.421295,3625.56756 222.080251,3626.76321 222.080251,3628.95893 L222.080251,3630.85102 L219.864856,3630.85102 L219.864856,3633.41666 L222.080251,3633.41666 L222.080251,3640 L222.080251,3640 Z" id="Facebook"></path>
        </g>
    </g>
</svg>