<?xml version="1.0" encoding="UTF-8"?>
<svg width="201px" height="70px" viewBox="0 0 201 70" version="1.1" xmlns="http://www.w3.org/2000/svg" xmlns:xlink="http://www.w3.org/1999/xlink">
    <!-- Generator: Sketch 45.1 (43504) - http://www.bohemiancoding.com/sketch -->
    <title>logoCG-blanco</title>
    <desc>Created with Sketch.</desc>
    <defs></defs>
    <g id="Page-1" stroke="none" stroke-width="1" fill="none" fill-rule="evenodd">
        <g id="-COMPRASGO-landing" transform="translate(-60.000000, -42.000000)" fill="#FFFFFF">
            <g id="header">
                <g id="logoCG-blanco" transform="translate(60.000000, 42.000000)">
                    <g id="Page-1">
                        <path d="M173.148475,25.0020907 C171.927136,26.4064445 171.333968,27.9993149 171.333968,29.872104 C171.333968,31.7448931 171.927136,33.3387156 173.148475,34.7421173 C174.320621,36.0874406 175.621428,36.7415362 177.127525,36.7415362 C178.635515,36.7415362 179.935376,36.0874406 181.107522,34.7421173 C182.328861,33.3387156 182.922975,31.7448931 182.922975,29.872104 C182.922975,27.9993149 182.328861,26.4064445 181.107522,25.0011386 C179.935376,23.6558153 178.634569,23.0026718 177.127525,23.0026718 C175.621428,23.0026718 174.321567,23.6558153 173.148475,25.0020907 Z" id="Fill-1"></path>
                        <path d="M183.884816,37.1465614 C181.982326,39.2535681 179.708989,40.3227812 177.127242,40.3227812 C174.547387,40.3227812 172.274995,39.2535681 170.37156,37.1465614 C168.506912,35.0804951 167.560871,32.6326351 167.560871,29.8724848 C167.560871,27.1123346 168.506912,24.6644745 170.37156,22.5984083 C172.274995,20.4904495 174.547387,19.4221885 177.127242,19.4221885 C179.708989,19.4221885 181.982326,20.4904495 183.884816,22.5984083 C185.750409,24.6644745 186.695505,27.1123346 186.695505,29.8724848 C186.695505,32.6326351 185.750409,35.0804951 183.884816,37.1465614 M181.455381,47.069392 C178.306955,51.3424359 172.70639,53.9007401 166.485222,53.9007401 C160.256485,53.9007401 154.652135,51.3376754 151.495195,47.0455894 C150.790394,46.1667971 150.449819,45.288957 150.51888,44.521561 C150.585103,43.7865365 150.965412,43.2362202 151.617235,42.9267863 C152.215133,42.6440114 152.851819,42.6268735 153.507425,42.878229 C154.074104,43.0962609 154.61997,43.5427978 155.272739,44.3273317 C157.728662,47.4787968 161.916788,49.3544422 166.485222,49.3544422 C171.048925,49.3544422 175.234213,47.4816531 177.680676,44.3463738 C178.343851,43.5513667 178.889717,43.1038777 179.459234,42.8820374 C180.116733,42.6268735 180.754364,42.6411551 181.354155,42.92393 C181.998409,43.2286034 182.374933,43.781776 182.442102,44.521561 C182.512109,45.2937175 182.171535,46.1753661 181.455381,47.069392 M147.454652,29.8724848 C147.454652,27.1123346 148.398802,24.6644745 150.264395,22.5984083 C152.166885,20.4904495 154.440222,19.4221885 157.021023,19.4221885 C160.003892,19.4221885 162.189248,20.0610504 163.70386,21.3768585 C164.109712,21.7310413 164.296082,22.2775491 164.185395,22.8078712 C164.078492,23.3381933 163.692507,23.7666402 163.179753,23.92945 L162.425758,24.1684282 C161.948953,24.3188607 161.431468,24.2188897 161.045483,23.9027911 C160.543135,23.4914821 159.437213,23.0030526 157.021023,23.0030526 C155.513979,23.0030526 154.214118,23.6561961 153.041973,25.0024715 C151.820633,26.4058732 151.227466,27.9987436 151.227466,29.8724848 C151.227466,31.7452739 151.820633,33.3381443 153.041973,34.7424981 C154.214118,36.0878214 155.513979,36.7419171 157.021023,36.7419171 C158.528067,36.7419171 159.828874,36.0878214 161.000073,34.741546 C161.802317,33.8199091 162.334938,32.9001764 162.60456,31.9614016 L158.09951,31.9614016 C157.280239,31.9614016 156.617064,31.2930244 156.617064,30.4694542 L156.617064,29.8724848 C156.617064,29.0479625 157.280239,28.3805375 158.09951,28.3805375 L165.105893,28.3805375 C165.925165,28.3805375 166.58834,29.0479625 166.58834,29.8724848 C166.58834,32.6326351 165.642299,35.0804951 163.777651,37.1465614 C161.874216,39.2535681 159.60277,40.3227812 157.021023,40.3227812 C154.440222,40.3227812 152.166885,39.2535681 150.264395,37.1465614 C148.398802,35.0804951 147.454652,32.6326351 147.454652,29.8724848 M195.736823,10.797076 C191.177849,3.77530706 184.506365,0.213485021 175.904956,0.213485021 C167.306386,0.213485021 158.827016,3.77530706 150.707143,10.7989802 C147.520875,13.555322 144.781139,16.5173184 142.482259,19.6659272 L144.42732,19.6659272 C145.041301,19.6659272 145.62217,19.9239474 146.041266,20.3704843 C146.447118,20.778937 146.683629,21.3473433 146.683629,21.965259 C146.683629,21.9995347 146.683629,22.0338105 146.681736,22.0680862 C146.657139,22.5574678 146.583348,23.0944546 146.455633,23.709514 C146.265478,24.6102046 145.832191,25.4023553 145.16807,26.0697804 C144.676129,26.5658267 144.110396,26.9380995 143.481278,27.1808861 C143.850234,27.4350979 144.19554,27.7226334 144.512463,28.0415883 C145.150095,28.6794982 145.657174,29.4316606 146.017615,30.2752249 C146.384679,31.1359272 146.570104,32.0594683 146.570104,33.0239499 C146.570104,33.9941442 146.377111,34.9281585 145.996802,35.8012381 C145.63163,36.6390898 145.133067,37.3864917 144.512463,38.0215452 C143.881454,38.668024 143.132189,39.1840645 142.285482,39.5563373 C141.4208,39.9362269 140.490841,40.129504 139.523987,40.129504 L134.2394,40.129504 C133.3908,47.2664776 134.787158,53.6893729 138.412388,59.2744165 C142.970416,66.2971375 149.643792,69.8580075 158.241417,69.8580075 C166.842825,69.8580075 175.321249,66.2971375 183.442068,59.2744165 C191.403007,52.3907027 196.622317,44.2349776 198.955255,35.0366983 C201.288194,25.837467 200.204976,17.6836461 195.736823,10.797076" id="Fill-3"></path>
                        <path d="M17.7294786,34.1858028 C17.7673202,34.205797 17.786241,34.2534022 17.786241,34.3295705 C17.7673202,34.7313585 17.7010973,35.1902728 17.5866263,35.7063133 C17.4731013,36.2223538 17.2252385,36.681268 16.8458759,37.083056 C16.4078587,37.5229282 15.890374,37.7961821 15.2924758,37.9009136 C14.6936316,38.0065972 14.0995176,38.0589629 13.5110798,38.0589629 L9.37782485,38.0589629 C7.97106125,38.0589629 6.78377926,37.9580398 5.81503284,37.7571458 C4.84534037,37.5572039 4.03079871,37.2363448 3.37046179,36.7964726 C2.29386665,36.0700171 1.46324227,35.1036313 0.877642631,33.8992194 C0.29298903,32.6948075 -0.000283812428,31.3361547 -0.000283812428,29.8261174 C-0.000283812428,28.3912962 0.29298903,27.0716797 0.877642631,25.8672678 C1.46324227,24.6619038 2.29386665,23.7059912 3.37046179,22.9985777 L3.39789699,22.9985777 C4.07810078,22.5587055 4.88885828,22.2387985 5.82922346,22.0369524 C6.76958863,21.8370105 7.95308646,21.7360875 9.37782485,21.7360875 L17.5866263,21.7360875 C17.6433888,21.7360875 17.6906909,21.7551295 17.7294786,21.7941658 C17.7673202,21.83225 17.786241,21.8798552 17.786241,21.9369815 C17.7673202,22.3387695 17.7010973,22.7929232 17.5866263,23.2994427 C17.4731013,23.8069142 17.2252385,24.2601159 16.8458759,24.6619038 C16.4078587,25.1027281 15.890374,25.3750299 15.2924758,25.4797614 C14.6936316,25.585445 14.0995176,25.6378107 13.5110798,25.6378107 L9.72029184,25.6378107 C7.72414443,25.6378107 6.3372477,25.9434362 5.55865561,26.5556392 C4.76019664,27.1678423 4.36096716,28.2580016 4.36096716,29.8261174 C4.36096716,30.6677775 4.4508411,31.3561489 4.63153501,31.8912315 C4.81222892,32.4263141 5.10266364,32.8566652 5.50094708,33.1822849 C5.90017656,33.5079045 6.43658205,33.7421222 7.11205563,33.8849378 C7.78563713,34.0277535 8.6550492,34.1001134 9.72029184,34.1001134 L17.5866263,34.1001134 C17.6433888,34.1001134 17.6906909,34.1286765 17.7294786,34.1858028" id="Fill-6"></path>
                        <path d="M35.3702184,33.1537217 C35.770394,32.8281021 36.0655589,32.397751 36.2557132,31.8626684 C36.4458675,31.3275858 36.5414177,30.6392144 36.5414177,29.7975542 C36.5414177,28.9939782 36.4411373,28.3294095 36.2415226,27.8028958 C36.0409618,27.2773343 35.7410667,26.8526958 35.3418372,26.5270761 C34.5414861,25.9148731 33.1602657,25.6092476 31.1991218,25.6092476 L29.5700384,25.6092476 C27.6079485,25.6092476 26.2371345,25.9148731 25.4566503,26.5270761 C24.6562993,27.1392791 24.2561238,28.2294385 24.2561238,29.7975542 C24.2561238,30.6392144 24.3469437,31.3275858 24.5276376,31.8626684 C24.7083316,32.397751 24.9997123,32.8281021 25.3989418,33.1537217 C25.7991173,33.4793414 26.3317386,33.7126069 26.9986978,33.8563747 C27.6656571,33.9991903 28.5227706,34.0715503 29.5700384,34.0715503 L31.227503,34.0715503 C32.2558501,34.0715503 33.1035032,33.9991903 33.7695163,33.8563747 C34.4364755,33.7126069 34.9700429,33.4793414 35.3702184,33.1537217 M37.5101641,22.9700146 C38.5933816,23.677428 39.4296822,24.6333407 40.019066,25.8377526 C40.6075038,27.0431166 40.9026687,28.3627331 40.9026687,29.7975542 C40.9026687,31.2885495 40.6075038,32.6424418 40.019066,33.8563747 C39.4296822,35.0712597 38.5933816,36.041454 37.5101641,36.7679095 C36.845097,37.2077817 36.0324474,37.5276887 35.0741075,37.7285827 C34.1138754,37.9294767 32.9218632,38.0303998 31.4961788,38.0303998 L31.2398016,38.0303998 L31.2114203,38.0303998 L29.5870672,38.0303998 L29.3013627,38.0303998 C27.8955451,38.0303998 26.7073171,37.9294767 25.7385707,37.7285827 C24.7698242,37.5276887 23.9524445,37.2077817 23.2873773,36.7679095 C22.2041599,36.041454 21.3678593,35.0712597 20.7784755,33.8563747 C20.1900377,32.6424418 19.8948728,31.2885495 19.8948728,29.7975542 C19.8948728,28.3627331 20.1947679,27.0431166 20.7926661,25.8377526 C21.3915103,24.6333407 22.2230807,23.677428 23.2873773,22.9700146 L23.3157586,22.9700146 C23.9997465,22.5301424 24.8123961,22.2092833 25.7527613,22.0083893 C26.6931265,21.8084474 27.8766243,21.7075243 29.3013627,21.7075243 L29.5870672,21.7075243 L31.2114203,21.7075243 L31.4961788,21.7075243 C32.9218632,21.7075243 34.104415,21.8084474 35.0447802,22.0083893 C35.9851454,22.2092833 36.8072554,22.5301424 37.5101641,22.9700146" id="Fill-9"></path>
                        <path d="M63.8474844,22.7113279 C64.4747099,23.342573 64.8162308,24.1271069 64.8739394,25.0639775 C64.8739394,25.2172663 64.8777235,25.370555 64.88813,25.5228917 C64.8975904,25.6761805 64.9023206,25.8485114 64.9023206,26.0389322 L64.9023206,37.8869177 C64.9023206,37.9440439 64.8833998,37.9916491 64.8455581,38.0297333 C64.8266373,38.0687696 64.7783892,38.0878117 64.7027059,38.0878117 C64.2656347,38.0687696 63.7576105,38.0011702 63.1776871,37.8869177 C62.5977637,37.771713 62.0991999,37.5232138 61.6810496,37.1404679 C61.1872159,36.7015479 60.8731302,36.1797947 60.7406844,35.5771127 C60.6072925,34.9753828 60.5410696,34.3774614 60.5410696,33.7843004 L60.5410696,26.9577129 L53.8998588,35.5913943 C53.8430963,35.6485205 53.7853878,35.6780358 53.7286253,35.6780358 C53.652942,35.6780358 53.6046939,35.6485205 53.5867191,35.5913943 L46.916181,26.9577129 L46.916181,33.7843004 C46.916181,34.3774614 46.8546883,34.9753828 46.7307569,35.5771127 C46.6077715,36.1797947 46.298416,36.7015479 45.8045823,37.1404679 C45.3675112,37.5232138 44.859487,37.771713 44.2795636,37.8869177 C43.6996402,38.0011702 43.1916159,38.0687696 42.7545448,38.0878117 C42.6977823,38.0878117 42.6504802,38.0687696 42.6126386,38.0297333 C42.5738509,37.9916491 42.55493,37.9440439 42.55493,37.8869177 L42.55493,26.0389322 C42.55493,25.8485114 42.5596602,25.6761805 42.5691207,25.5228917 C42.5785811,25.370555 42.5937177,25.2172663 42.6126386,25.0639775 C42.6504802,24.1271069 42.9920012,23.342573 43.6381475,22.7113279 C44.2842938,22.0619927 45.0732923,21.7363731 46.0041971,21.7363731 C46.5547932,21.7363731 47.0684937,21.8563382 47.5434065,22.0943643 C48.0183193,22.3342946 48.4175488,22.6732437 48.7410949,23.1131158 L53.7286253,29.5674306 L58.7171018,23.1131158 L58.745483,23.1131158 C59.0680831,22.6732437 59.4625824,22.3342946 59.9280348,22.0943643 C60.3934872,21.8563382 60.9015114,21.7363731 61.4530536,21.7363731 C62.3659836,21.7363731 63.1634965,22.0619927 63.8474844,22.7113279" id="Fill-11"></path>
                        <path d="M80.9066926,27.6557957 C81.144149,27.4139612 81.2633502,27.1283299 81.2633502,26.7989019 C81.2633502,26.4704259 81.144149,26.1809862 80.9066926,25.9286786 C80.6692362,25.677323 80.389208,25.5516453 80.0656618,25.5516453 L71.4860121,25.5516453 L71.4860121,27.9899843 L80.0656618,28.0185474 C80.389208,28.0185474 80.6692362,27.8985823 80.9066926,27.6557957 M82.2888592,22.1373994 C82.8971638,22.4058928 83.4297851,22.7695966 83.8857771,23.2275588 C84.3417691,23.686473 84.7022108,24.2225077 84.9689945,24.8347108 C85.2348322,25.4469138 85.367278,26.0962489 85.367278,26.7846203 C85.367278,27.4739438 85.2395624,28.124231 84.9831851,28.7354819 C84.7258619,29.347685 84.3701503,29.8827676 83.9141583,30.3416818 C83.4581664,30.8015482 82.9302752,31.1642999 82.3323771,31.4318412 C81.7335328,31.7003346 81.0921168,31.8336292 80.4081288,31.8336292 L80.3513663,31.8336292 L71.4860121,31.8336292 L71.4860121,33.7559277 C71.4860121,34.3490886 71.4245194,34.946058 71.300588,35.54874 C71.1776026,36.151422 70.8682471,36.672223 70.3744134,37.1120952 C69.9373423,37.4948411 69.429318,37.7433403 68.8493947,37.8585449 C68.2694713,37.9727975 67.761447,38.0394448 67.3243759,38.0584868 C67.2676134,38.0584868 67.2203113,38.0394448 67.1824697,38.0013606 C67.143682,37.9632764 67.1247611,37.9156712 67.1247611,37.8585449 L67.1247611,22.7115183 C67.1247611,22.443977 67.2203113,22.2145198 67.4104656,22.0231469 C67.5996739,21.8317739 67.8276699,21.7365635 68.0944536,21.7365635 L80.3513663,21.7365635 C81.0353543,21.7365635 81.6805545,21.8698581 82.2888592,22.1373994" id="Fill-13"></path>
                        <path d="M100.48852,27.6557957 C100.725977,27.4139612 100.845178,27.1283299 100.845178,26.7989019 C100.845178,26.4704259 100.725977,26.1809862 100.48852,25.9286786 C100.251064,25.677323 99.9710356,25.5516453 99.6474895,25.5516453 L91.3535443,25.5516453 L91.3535443,27.9899843 L99.6474895,28.0185474 C99.9710356,28.0185474 100.251064,27.8985823 100.48852,27.6557957 L100.48852,27.6557957 Z M104.892343,36.5379763 C104.930185,36.5770126 104.949106,36.6246178 104.949106,36.6817441 C104.949106,36.7588645 104.920724,36.8064697 104.863962,36.8255118 C104.579203,37.0940052 104.217816,37.3605944 103.780744,37.6281357 C103.343673,37.8966291 102.84984,38.0299237 102.298298,38.0299237 L102.269916,38.0299237 C101.661612,38.0299237 101.111016,37.8585449 100.617182,37.5138832 C100.122402,37.1692215 99.6664103,36.7779066 99.24826,36.3380344 L94.9447175,31.8336292 L91.3535443,31.8336292 L91.3535443,33.7559277 C91.3535443,34.3490886 91.2911056,34.946058 91.1681202,35.54874 C91.0441887,36.151422 90.7357792,36.672223 90.2419456,37.1120952 C89.8039284,37.4948411 89.2959042,37.7433403 88.7169268,37.8585449 C88.1370034,37.9727975 87.6289792,38.0394448 87.1919081,38.0584868 C87.1351456,38.0584868 87.0868975,38.0394448 87.0490558,38.0013606 C87.0112141,37.9632764 86.9922933,37.9156712 86.9922933,37.8585449 L86.9922933,22.7115183 C86.9922933,22.443977 87.0868975,22.2145198 87.2770518,22.0231469 C87.4672061,21.8317739 87.6952021,21.7365635 87.9610397,21.7365635 L99.933194,21.7365635 C100.617182,21.7365635 101.262382,21.8698581 101.870687,22.1373994 C102.478991,22.4058928 103.011613,22.7695966 103.467605,23.2275588 C103.923597,23.686473 104.284039,24.2225077 104.550822,24.8347108 C104.815714,25.4469138 104.949106,26.0962489 104.949106,26.7846203 C104.949106,27.4549017 104.83085,28.0804342 104.593394,28.6640741 C104.354992,29.247714 104.027661,29.7637545 103.609511,30.2131477 C103.191361,30.6625409 102.697527,31.0262448 102.12801,31.3033071 C101.557547,31.5803695 100.949242,31.7479398 100.303096,31.8050661 L104.892343,36.5379763 Z" id="Fill-15"></path>
                        <path d="M121.139469,30.198771 L121.139469,29.9407507 C121.139469,28.4868875 120.815923,27.4452854 120.170723,26.8130882 C119.828256,26.4884207 119.376994,26.236113 118.815992,26.053309 C118.255935,25.8724092 117.548296,25.7714862 116.693075,25.7524441 C115.66662,25.7143599 114.825589,25.7810072 114.169982,25.9533381 C113.514375,26.1256689 112.98743,26.3741682 112.588201,26.6988357 C112.207892,27.0244554 111.923134,27.4452854 111.732979,27.961326 C111.542825,28.4773665 111.448221,29.1466958 111.448221,29.9693138 L111.448221,30.198771 L121.139469,30.198771 Z M125.50072,37.8870129 C125.50072,37.9631812 125.480853,38.0107864 125.443012,38.0298285 C125.424091,38.0679127 125.376789,38.0879069 125.301106,38.0879069 C124.863088,38.0679127 124.355064,38.0012654 123.775141,37.8870129 C123.196163,37.7718083 122.696654,37.523309 122.279449,37.1405631 C121.78467,36.7016431 121.47153,36.1798899 121.339084,35.5772079 C121.205692,34.9745259 121.139469,34.3775566 121.139469,33.7843956 L121.139469,33.7272694 L111.448221,33.7272694 L111.448221,33.8129587 C111.448221,34.4061197 111.386728,35.0040412 111.262797,35.6057711 C111.138865,36.2084531 110.830456,36.7302062 110.336622,37.1691263 C109.899551,37.5518722 109.390581,37.8003714 108.811604,37.915576 C108.23168,38.0298285 107.723656,38.0974279 107.286585,38.11647 C107.267664,38.11647 107.220362,38.0974279 107.143733,38.0583916 C107.105891,38.0203075 107.08697,37.9727022 107.08697,37.915576 L107.08697,29.9693138 C107.105891,28.4773665 107.40484,27.1291868 107.984763,25.9247749 C108.563741,24.7194109 109.395311,23.7634983 110.478529,23.0560848 C111.124675,22.6352547 111.885292,22.3201082 112.759434,22.1087411 C113.633577,21.8992781 114.715848,21.7840735 116.009087,21.7650314 L116.09423,21.7650314 C117.519915,21.7459893 118.711927,21.8411998 119.671213,22.0516148 C120.630499,22.2620298 121.443149,22.5866974 122.108216,23.0265696 C123.191433,23.7539772 124.027734,24.7156025 124.616172,25.9104934 C125.206501,27.1053842 125.50072,28.4488033 125.50072,29.9407507 L125.50072,37.8870129 Z" id="Fill-17"></path>
                        <path d="M131.585943,25.928869 C131.348486,26.1811766 131.229285,26.4706163 131.229285,26.7990923 C131.229285,27.1285204 131.348486,27.4141516 131.585943,27.6559861 C131.823399,27.8978206 132.103427,28.0187378 132.426027,28.0187378 L139.495795,27.9901747 C139.533637,27.9901747 139.552557,27.9996958 139.552557,28.0187378 C140.236545,28.0187378 140.877962,28.1520324 141.476806,28.4195737 C142.074704,28.6861629 142.602595,29.0489146 143.058587,29.5059247 C143.514579,29.9638868 143.870291,30.4932568 144.127614,31.0940346 C144.383991,31.6938603 144.512653,32.3384349 144.512653,33.0239499 C144.512653,33.7113692 144.379261,34.3597522 144.113423,34.970051 C143.84664,35.5803499 143.489982,36.1135283 143.044396,36.5714904 C142.597865,37.0294526 142.069974,37.3912522 141.462615,37.6578414 C140.85431,37.9253827 140.208164,38.0586773 139.524176,38.0586773 L127.295645,38.0586773 C127.238882,38.0586773 127.19158,38.0396352 127.153739,38.001551 C127.114951,37.9253827 127.09603,37.8682564 127.09603,37.8292201 C127.114951,37.4474263 127.17739,37.0066021 127.281454,36.5096036 C127.385519,36.0126052 127.628651,35.572733 128.00896,35.1899871 C128.445085,34.750115 128.924728,34.4835258 129.447889,34.3873632 C129.970104,34.2912007 130.478128,34.2435955 130.972908,34.2435955 L139.21009,34.2435955 C139.533637,34.2435955 139.813665,34.1245825 140.051121,33.8846522 C140.288578,33.6466261 140.407779,33.3543301 140.407779,33.0096684 C140.407779,32.6850008 140.288578,32.4079385 140.051121,32.1784814 C139.813665,31.9480721 139.533637,31.8338196 139.21009,31.8338196 L132.141269,31.8338196 L132.084506,31.8338196 C131.400519,31.8338196 130.759102,31.700525 130.160258,31.4320316 C129.56236,31.1644903 129.034469,30.8007865 128.578477,30.3418722 C128.122485,29.882958 127.765827,29.3478754 127.50945,28.7356723 C127.253073,28.1234693 127.125357,27.4741342 127.125357,26.7848107 C127.125357,26.0964393 127.257803,25.4461521 127.523641,24.8349012 C127.789478,24.2226982 128.150866,23.6866635 128.606858,23.2277492 C129.06285,22.7688349 129.594525,22.4060832 130.203776,22.1375898 C130.811135,21.8700485 131.457281,21.7367539 132.141269,21.7367539 L144.426563,21.7367539 C144.484271,21.7367539 144.530627,21.7653171 144.569415,21.8224433 C144.607257,21.8414854 144.626178,21.8890906 144.626178,21.965259 C144.607257,22.3480049 144.544818,22.787877 144.440754,23.2858276 C144.335743,23.782826 144.094502,24.2226982 143.714194,24.604492 C143.296043,25.025322 142.796534,25.2890549 142.217556,25.3937864 C141.637633,25.49947 141.072846,25.5518357 140.521304,25.5518357 L132.426027,25.5518357 C132.103427,25.5518357 131.823399,25.6775135 131.585943,25.928869" id="Fill-19"></path>
                    </g>
                </g>
            </g>
        </g>
    </g>
</svg>