<?xml version="1.0" encoding="UTF-8" standalone="no"?>
<svg width="17px" height="14px" viewBox="0 0 17 14" version="1.1" xmlns="http://www.w3.org/2000/svg" xmlns:xlink="http://www.w3.org/1999/xlink">
    <!-- Generator: sketchtool 45 (43471) - http://www.bohemiancoding.com/sketch -->
    <title>Twitter-color</title>
    <desc>Created with sketchtool.</desc>
    <defs></defs>
    <g id="Page-1" stroke="none" stroke-width="1" fill="none" fill-rule="evenodd">
        <g id="-COMPRASGO-landing" transform="translate(-248.000000, -3624.000000)" fill="#00AAEC">
            <path d="M265,3625.65735 C264.37536,3625.93846 263.702823,3626.12857 262.997359,3626.21351 C263.717791,3625.77667 264.270588,3625.084 264.531021,3624.25887 C263.856489,3624.66334 263.111111,3624.9576 262.314844,3625.11535 C261.680225,3624.42875 260.7732,3624 259.769384,3624 C257.844574,3624 256.282972,3625.58252 256.282972,3627.53413 C256.282972,3627.8112 256.312907,3628.08017 256.372777,3628.33904 C253.474086,3628.1914 250.904678,3626.78584 249.183424,3624.64514 C248.883078,3625.16894 248.711452,3625.77667 248.711452,3626.42384 C248.711452,3627.6494 249.327112,3628.73138 250.263074,3629.3654 C249.692317,3629.34821 249.153489,3629.18743 248.682515,3628.92452 L248.682515,3628.968 C248.682515,3630.68097 249.884898,3632.10979 251.481423,3632.43337 C251.189059,3632.51629 250.88073,3632.55775 250.562423,3632.55775 C250.337912,3632.55775 250.118389,3632.53651 249.905852,3632.49505 C250.349886,3633.89859 251.637084,3634.92091 253.163761,3634.94821 C251.970359,3635.89671 250.465634,3636.46197 248.832189,3636.46197 C248.550801,3636.46197 248.272407,3636.44579 248,3636.41343 C249.54364,3637.41452 251.377649,3638 253.346364,3638 C259.762399,3638 263.269766,3632.61538 263.269766,3627.94467 C263.269766,3627.79097 263.266772,3627.63727 263.260785,3627.4866 C263.942302,3626.98808 264.534014,3626.3662 265,3625.65735" id="Twitter"></path>
        </g>
    </g>
</svg>